<svg xmlns="http://www.w3.org/2000/svg" width="512" height="512" viewBox="0 0 512 512">
  <defs>
    <linearGradient id="bg" x1="0" y1="0" x2="1" y2="1">
      <stop offset="0" stop-color="#151b26" />
      <stop offset="1" stop-color="#070910" />
    </linearGradient>
    <linearGradient id="banner" x1="0" y1="0" x2="1" y2="0">
      <stop offset="0" stop-color="#4ADE80" />
      <stop offset="0.5" stop-color="#22C55E" />
      <stop offset="0.5" stop-color="#F43F5E" />
      <stop offset="1" stop-color="#E11D48" />
    </linearGradient>
    <radialGradient id="glowA" cx="0.2" cy="0.15" r="0.75">
      <stop offset="0" stop-color="#34D399" stop-opacity="0.34" />
      <stop offset="1" stop-color="#34D399" stop-opacity="0" />
    </radialGradient>
    <radialGradient id="glowB" cx="0.85" cy="0.9" r="0.75">
      <stop offset="0" stop-color="#F43F5E" stop-opacity="0.3" />
      <stop offset="1" stop-color="#F43F5E" stop-opacity="0" />
    </radialGradient>
  </defs>

  <rect width="512" height="512" rx="116" fill="url(#bg)" />
  <rect width="512" height="512" rx="116" fill="url(#glowA)" />
  <rect width="512" height="512" rx="116" fill="url(#glowB)" />
  
  <g transform="translate(82 76) scale(15)">
    <path d="M6.6 3.5C9.4 2.1 12.2 4.9 15 3.9c2.2-.8 3.8-.4 4.8.2v7.3c-1-.6-2.6-1-4.8-.2-2.8 1-5.6-1.8-8.4-.4z" fill="url(#banner)" />
    <rect x="3.4" y="2" width="2.3" height="20" rx="1.15" fill="#EEF3FA" />
  </g>
</svg>